<?xml version="1.0" standalone="no"?>
<!DOCTYPE svg PUBLIC "-//W3C//DTD SVG 20010904//EN"
 "http://www.w3.org/TR/2001/REC-SVG-20010904/DTD/svg10.dtd">
<svg version="1.0" xmlns="http://www.w3.org/2000/svg"
 width="256.000000pt" height="256.000000pt" viewBox="0 0 256.000000 256.000000"
 preserveAspectRatio="xMidYMid meet">
<metadata>
Created by potrace 1.11, written by Peter Selinger 2001-2013
</metadata>
<g transform="translate(0.000000,256.000000) scale(0.100000,-0.100000)"
fill="#000000" stroke="none">
<path d="M0 1280 l0 -1280 1280 0 1280 0 0 1280 0 1280 -1280 0 -1280 0 0
-1280z m2031 626 c165 -35 278 -132 314 -271 26 -103 37 -96 -137 -93 l-152 3
-7 29 c-18 68 -84 106 -183 106 -106 0 -166 -35 -166 -97 0 -76 16 -84 262
-149 259 -67 359 -125 409 -237 33 -73 34 -229 2 -299 -46 -102 -124 -169
-249 -215 -91 -34 -290 -43 -404 -19 -197 42 -325 153 -359 314 -21 99 -32 92
144 92 l154 0 11 -40 c24 -88 101 -135 225 -134 95 0 160 29 181 79 17 41 12
69 -20 103 -32 36 -57 46 -244 96 -264 70 -355 127 -402 253 -36 98 -21 237
37 324 45 68 132 121 248 150 86 22 246 24 336 5z m-1087 -78 c335 -926 412
-1144 406 -1151 -3 -4 -76 -6 -161 -5 l-154 3 -35 107 -35 108 -211 0 -211 0
-34 -107 -35 -108 -144 -3 c-79 -1 -149 -1 -156 2 -9 4 212 638 407 1169 l21
57 158 0 158 0 26 -72z"/>
<path d="M742 1523 c-7 -27 -38 -126 -68 -222 -30 -95 -53 -175 -51 -177 2 -3
63 -3 135 -2 l130 3 -35 110 c-19 61 -49 161 -67 223 l-32 112 -12 -47z"/>
</g>
</svg>
